<svg version="1.1" id="Layer_1" xmlns="http://www.w3.org/2000/svg" xmlns:xlink="http://www.w3.org/1999/xlink" x="0px" y="0px"
	 width="100%" viewBox="0 0 1024 1024" enable-background="new 0 0 1024 1024" xml:space="preserve">
<path fill="#FEFEFE" opacity="1.000000" stroke="none" 
	d="
M538.000000,1025.000000 
	C358.666656,1025.000000 179.833328,1025.000000 1.000000,1025.000000 
	C1.000000,683.666687 1.000000,342.333344 1.000000,1.000000 
	C342.333344,1.000000 683.666687,1.000000 1025.000000,1.000000 
	C1025.000000,342.333344 1025.000000,683.666687 1025.000000,1025.000000 
	C862.833313,1025.000000 700.666687,1025.000000 538.000000,1025.000000 
M788.924194,441.194397 
	C798.161621,441.194397 807.398987,441.194397 816.650208,441.194397 
	C816.650208,398.447601 816.650208,356.417328 816.650208,313.878082 
	C814.455811,313.878082 812.505920,313.879425 810.556030,313.877869 
	C766.624390,313.842377 722.692810,313.806641 679.214355,313.250214 
	C681.074646,312.167450 682.903442,311.025726 684.800354,310.011353 
	C697.363098,303.293274 708.895630,295.233246 718.728577,284.804962 
	C735.406677,267.116974 739.006897,246.020828 727.239197,224.699417 
	C710.972534,195.226318 685.252686,176.732697 654.235107,164.983063 
	C639.917297,159.559387 626.232239,161.416473 614.698364,170.944275 
	C604.379395,179.468430 593.940125,188.608063 586.239441,199.393524 
	C565.643127,228.240265 546.482361,258.112305 526.766602,287.587219 
	C521.724915,295.124512 516.740295,302.699921 511.362823,310.810822 
	C510.090454,308.392914 509.455475,306.911194 508.588867,305.580231 
	C491.688324,279.623871 474.858643,253.620560 457.804626,227.765244 
	C446.338257,210.381302 434.901398,192.845322 419.115509,178.977707 
	C413.105133,173.697739 405.665283,170.044983 398.534515,165.086929 
	C392.079529,161.794052 385.357605,161.275986 378.296417,162.736069 
	C361.837555,166.139343 347.639618,174.268448 334.273163,183.937805 
	C318.114624,195.626953 303.937500,209.184586 295.566925,227.825668 
	C291.379852,237.150146 289.549561,246.786133 291.837494,256.857819 
	C295.199677,271.658539 303.196777,283.508911 315.180634,292.798859 
	C325.899445,301.108093 336.096436,310.276184 350.264252,312.409180 
	C350.556915,312.453247 350.740509,313.221649 350.053955,313.814880 
	C302.816010,313.814880 255.578079,313.814880 208.341003,313.814880 
	C208.341003,356.650330 208.341003,398.725250 208.341003,441.439453 
	C218.411575,441.439453 228.199722,441.439453 237.930328,442.320160 
	C237.956558,459.136658 237.967896,475.953186 238.012863,492.769653 
	C238.066269,512.744324 238.148575,532.718811 237.834244,553.262634 
	C237.847275,553.491150 237.860306,553.719666 237.655853,554.870911 
	C237.655853,638.146606 237.655853,721.422241 237.655853,805.117249 
	C241.423431,805.117249 244.722076,805.120544 248.020721,805.116760 
	C292.015015,805.066345 336.009308,805.014954 380.538879,805.120178 
	C380.714142,805.058105 380.889374,804.996094 381.788544,805.331177 
	C383.100128,805.477905 384.411591,805.751953 385.723267,805.752869 
	C426.655945,805.781616 467.588654,805.786438 508.521332,805.776855 
	C509.810822,805.776611 511.100220,805.585510 512.826172,805.448792 
	C512.826172,779.125793 512.826172,753.057129 513.445312,726.641052 
	C523.510620,720.915527 533.608887,715.246826 543.632385,709.449036 
	C554.206299,703.332825 564.708862,697.093262 575.906738,690.832031 
	C596.752197,678.766052 617.552673,666.620850 638.494812,654.724915 
	C641.415527,653.065857 642.289856,651.289185 642.266907,648.105591 
	C642.127563,628.819641 642.182434,609.532227 642.182373,590.245300 
	C642.182312,579.105469 642.239380,567.965454 642.183899,556.825928 
	C642.170227,554.085144 642.536621,552.069458 645.981995,553.967529 
	C645.981995,637.568665 645.981995,721.169800 645.981995,804.773438 
	C694.034668,804.773438 741.416748,804.773438 789.003723,804.773438 
	C789.003723,803.577698 789.003784,802.760376 789.003723,801.943054 
	C789.001831,719.947388 789.001038,637.951721 788.985229,555.956055 
	C788.984985,554.968994 788.791565,553.981873 788.734680,552.071106 
	C788.728210,521.649414 788.732727,491.227722 788.684387,460.806122 
	C788.681824,459.205048 788.230286,457.604675 788.148193,455.084076 
	C788.100891,450.518829 788.053650,445.953583 788.924194,441.194397 
z"/>
<path fill="#1F2F44" opacity="1.000000" stroke="none" 
	d="
M788.688354,552.994812 
	C788.791565,553.981873 788.984985,554.968994 788.985229,555.956055 
	C789.001038,637.951721 789.001831,719.947388 789.003723,801.943054 
	C789.003784,802.760376 789.003723,803.577698 789.003723,804.773438 
	C741.416748,804.773438 694.034668,804.773438 645.981995,804.773438 
	C645.981995,721.169800 645.981995,637.568665 646.469482,553.467651 
	C694.200745,552.976807 741.444519,552.985779 788.688354,552.994812 
z"/>
<path fill="#1F2F44" opacity="1.000000" stroke="none" 
	d="
M380.003601,804.963806 
	C336.009308,805.014954 292.015015,805.066345 248.020721,805.116760 
	C244.722076,805.120544 241.423431,805.117249 237.655853,805.117249 
	C237.655853,721.422241 237.655853,638.146606 238.241730,554.421021 
	C283.790588,553.975952 328.753937,554.063171 373.716064,553.869446 
	C378.707703,553.847961 380.120056,554.999695 380.109192,560.165466 
	C379.937836,641.764648 379.997162,723.364258 380.003601,804.963806 
z"/>
<path fill="#FE8670" opacity="1.000000" stroke="none" 
	d="
M512.826172,726.988525 
	C512.826172,753.057129 512.826172,779.125793 512.826172,805.448792 
	C511.100220,805.585510 509.810822,805.776611 508.521332,805.776855 
	C467.588654,805.786438 426.655945,805.781616 385.723267,805.752869 
	C384.411591,805.751953 383.100128,805.477905 381.402222,804.670959 
	C381.015869,720.453552 381.015869,636.896362 381.015869,552.856384 
	C373.185089,552.856384 365.903595,552.864380 358.622101,552.855042 
	C318.487518,552.803467 278.352936,552.747742 238.218353,552.693420 
	C238.148575,532.718811 238.066269,512.744324 238.012863,492.769653 
	C237.967896,475.953186 237.956558,459.136658 238.412964,441.791595 
	C243.270142,441.258911 247.644669,441.254761 252.367966,441.445129 
	C253.378586,441.694550 254.040451,441.797455 254.702316,441.797546 
	C295.665222,441.802399 336.628143,441.802979 377.591034,441.774078 
	C378.721436,441.773285 379.851532,441.447144 381.330994,441.206665 
	C381.977234,440.794312 382.274200,440.447968 382.698303,439.778137 
	C382.721588,438.300751 382.617706,437.146881 382.554321,435.528198 
	C382.508728,420.729797 382.422638,406.396179 382.521332,391.701843 
	C382.713562,365.498932 382.721039,339.656799 383.041565,313.634094 
	C395.569733,308.637421 407.784882,303.821289 419.995911,299.371521 
	C417.773804,302.259949 416.033783,305.915253 413.247681,307.090363 
	C405.104065,310.524963 396.559692,313.021393 388.125763,315.740967 
	C387.032288,316.093567 385.664856,315.596497 384.082306,315.464447 
	C384.189026,316.969788 383.823669,318.506897 384.417572,319.130646 
	C388.989929,323.932861 387.743225,330.389801 388.656250,335.927277 
	C389.969421,343.891724 388.998352,352.233032 388.999634,360.413483 
	C389.001190,370.349396 388.999329,380.285309 389.000366,390.221222 
	C389.000763,394.218903 388.751587,398.239899 389.115906,402.204315 
	C389.293854,404.140656 390.410187,407.457001 391.457306,407.603241 
	C397.176880,408.402100 396.581970,411.860779 396.109619,415.961853 
	C395.539673,420.910126 397.920929,422.875427 402.898529,422.186157 
	C410.238556,421.169739 411.927002,422.602356 412.000000,429.908295 
	C412.064667,436.384308 418.795563,442.119812 424.650391,439.682098 
	C430.070831,437.425201 434.238495,440.635223 438.529114,441.052551 
	C421.903076,441.147552 405.738434,441.336945 389.580353,441.092590 
	C384.868835,441.021332 383.409790,442.528290 383.802429,447.099243 
	C384.186035,451.565247 383.893402,456.089691 383.891327,460.588470 
	C383.862610,522.404541 383.862976,584.220642 383.729492,646.036438 
	C383.721375,649.795593 384.686279,652.012390 388.176025,653.895447 
	C397.109161,658.715698 405.730988,664.109802 414.523407,669.194702 
	C426.612915,676.186401 438.744873,683.104736 451.111267,690.287964 
	C471.851288,702.677185 492.338715,714.832886 512.826172,726.988525 
z"/>
<path fill="#1F2F45" opacity="1.000000" stroke="none" 
	d="
M513.135742,726.814819 
	C492.338715,714.832886 471.851288,702.677185 451.121643,689.810669 
	C450.896637,608.744995 450.912292,528.390137 450.939972,448.035217 
	C450.940643,446.043732 451.074799,444.052277 451.605591,442.074463 
	C471.627502,442.088074 491.190552,442.088074 511.274475,442.088074 
	C511.274475,472.372986 511.274475,501.862762 511.274475,531.352539 
	C511.730469,531.356079 512.186462,531.359558 512.642456,531.363037 
	C512.642456,501.789886 512.642456,472.216675 512.642456,442.035461 
	C533.904297,442.035461 554.336304,442.035461 574.868652,442.492126 
	C574.993286,523.105835 575.015869,603.262878 575.050415,683.419861 
	C575.051453,685.915771 575.175781,688.411743 575.242615,690.907654 
	C564.708862,697.093262 554.206299,703.332825 543.632385,709.449036 
	C533.608887,715.246826 523.510620,720.915527 513.135742,726.814819 
z"/>
<path fill="#FD8570" opacity="1.000000" stroke="none" 
	d="
M398.876923,165.650635 
	C405.665283,170.044983 413.105133,173.697739 419.115509,178.977707 
	C434.901398,192.845322 446.338257,210.381302 457.804626,227.765244 
	C474.858643,253.620560 491.688324,279.623871 508.588867,305.580231 
	C509.455475,306.911194 510.090454,308.392914 511.362823,310.810822 
	C516.740295,302.699921 521.724915,295.124512 526.766602,287.587219 
	C546.482361,258.112305 565.643127,228.240265 586.239441,199.393524 
	C593.940125,188.608063 604.379395,179.468430 614.698364,170.944275 
	C626.232239,161.416473 639.917297,159.559387 654.235107,164.983063 
	C685.252686,176.732697 710.972534,195.226318 727.239197,224.699417 
	C739.006897,246.020828 735.406677,267.116974 718.728577,284.804962 
	C708.895630,295.233246 697.363098,303.293274 684.800354,310.011353 
	C682.903442,311.025726 681.074646,312.167450 678.556885,313.594299 
	C666.312622,313.938416 654.725830,313.938416 642.900452,313.938416 
	C642.900452,356.757629 642.900452,398.969788 642.864197,441.161041 
	C642.827942,441.140167 642.747375,441.162598 642.302795,441.103546 
	C619.650940,441.020081 597.443604,440.995697 575.112000,440.927917 
	C574.987671,440.884521 574.724365,440.881744 574.834595,440.435852 
	C574.963379,403.632050 574.985596,367.274078 574.980103,330.916138 
	C574.979919,329.945465 574.679688,328.974884 574.388916,327.688049 
	C566.105469,325.252991 557.981995,323.010376 549.792114,321.044952 
	C538.279480,318.282196 526.717407,315.725220 515.585083,313.059082 
	C526.656982,311.355865 537.353333,309.858459 547.977051,307.955658 
	C575.263733,303.068329 602.625732,298.514526 629.748657,292.830170 
	C648.669678,288.864777 666.887390,282.365814 682.521606,270.346283 
	C689.459412,265.012512 695.455811,258.844818 697.790894,249.487717 
	C699.072571,242.380844 697.912048,236.057632 694.543213,230.271790 
	C684.069397,212.283646 667.094177,201.939835 649.911560,191.847534 
	C646.013550,196.028122 642.540649,199.752838 638.729675,203.622803 
	C637.335144,204.544037 636.212341,205.244675 635.231750,206.106934 
	C608.761780,229.383301 582.318970,252.690521 555.842529,275.959534 
	C544.873169,285.600006 533.837158,295.164734 522.504456,304.873779 
	C520.462158,306.675903 518.746887,308.368134 517.016663,310.031860 
	C517.001709,310.003326 517.058960,310.032654 516.660461,309.920837 
	C513.839661,310.238007 511.417389,310.666992 508.620056,311.065979 
	C507.013794,311.985748 505.909943,313.452637 504.528503,313.793091 
	C499.401672,315.056641 494.183441,315.949219 489.222717,316.696960 
	C492.630219,315.274323 495.814484,314.135956 499.297607,312.959900 
	C499.915710,312.515167 500.235016,312.108063 500.554321,311.700989 
	C500.036224,311.467346 499.518097,311.233673 498.724060,310.711609 
	C487.350433,308.938599 476.227936,307.615723 465.162994,305.917908 
	C456.405548,304.574127 447.718781,302.770111 439.337769,301.062134 
	C440.983337,300.963989 442.312531,300.826447 443.596924,301.007233 
	C456.558929,302.831726 469.501373,304.800140 482.475128,306.535004 
	C489.988708,307.539795 497.549438,308.192078 505.047363,309.002869 
	C505.005768,309.002747 505.003174,308.919617 504.971619,309.248535 
	C505.615814,309.343353 506.291595,309.109253 506.860535,308.561066 
	C501.317322,303.866943 495.716278,299.674652 490.471588,295.075958 
	C459.440491,267.867004 428.518402,240.533691 397.483063,213.329575 
	C393.552460,209.884186 389.174011,206.949707 384.988617,203.439972 
	C381.621429,199.404068 378.268677,195.706726 375.069427,191.697845 
	C380.474640,188.273026 385.859985,185.361359 390.942657,181.993027 
	C396.688507,178.185196 400.157379,173.001236 398.876923,165.650635 
z"/>
<path fill="#FE8670" opacity="1.000000" stroke="none" 
	d="
M575.574707,690.869873 
	C575.175781,688.411743 575.051453,685.915771 575.050415,683.419861 
	C575.015869,603.262878 574.993286,523.105835 574.992676,442.517334 
	C575.016541,442.085876 575.268494,442.053955 575.717041,442.037018 
	C598.386902,442.013763 620.608215,442.007416 642.883911,442.466583 
	C642.938293,467.466370 642.938293,492.000671 642.938293,517.170776 
	C644.987610,516.348328 646.046814,515.946960 647.087341,515.502075 
	C662.367920,508.969696 677.656677,502.456299 692.922241,495.889069 
	C717.960815,485.117584 742.957336,474.247803 768.031677,463.560547 
	C774.569580,460.773926 781.329712,458.508728 787.987793,456.004028 
	C788.230286,457.604675 788.681824,459.205048 788.684387,460.806122 
	C788.732727,491.227722 788.728210,521.649414 788.711548,552.532959 
	C741.444519,552.985779 694.200745,552.976807 646.490356,553.001709 
	C642.536621,552.069458 642.170227,554.085144 642.183899,556.825928 
	C642.239380,567.965454 642.182312,579.105469 642.182373,590.245300 
	C642.182434,609.532227 642.127563,628.819641 642.266907,648.105591 
	C642.289856,651.289185 641.415527,653.065857 638.494812,654.724915 
	C617.552673,666.620850 596.752197,678.766052 575.574707,690.869873 
z"/>
<path fill="#1F2F45" opacity="1.000000" stroke="none" 
	d="
M382.336578,392.062592 
	C382.422638,406.396179 382.508728,420.729797 382.391052,435.840942 
	C382.315308,437.779541 382.443268,438.940613 382.571198,440.101624 
	C382.274200,440.447968 381.977234,440.794312 380.882812,441.091492 
	C338.052612,441.021698 296.019806,440.999847 253.987015,440.991730 
	C253.331100,440.991608 252.675140,441.160583 252.019211,441.250610 
	C247.644669,441.254761 243.270142,441.258911 238.441742,441.351257 
	C228.199722,441.439453 218.411575,441.439453 208.341003,441.439453 
	C208.341003,398.725250 208.341003,356.650330 208.341003,313.814880 
	C255.578079,313.814880 302.816010,313.814880 350.975037,313.831726 
	C361.945251,313.909698 371.994385,313.970856 382.014099,314.497253 
	C381.988098,329.559967 381.949585,344.157684 382.008728,358.754944 
	C382.053680,369.857758 382.222717,380.960052 382.336578,392.062592 
z"/>
<path fill="#1F2F45" opacity="1.000000" stroke="none" 
	d="
M642.900452,441.181915 
	C642.900452,398.969788 642.900452,356.757629 642.900452,313.938416 
	C654.725830,313.938416 666.312622,313.938416 678.330322,313.854675 
	C722.692810,313.806641 766.624390,313.842377 810.556030,313.877869 
	C812.505920,313.879425 814.455811,313.878082 816.650208,313.878082 
	C816.650208,356.417328 816.650208,398.447601 816.650208,441.194397 
	C807.398987,441.194397 798.161621,441.194397 788.007935,441.210754 
	C785.428833,441.213287 783.765991,441.187622 782.103149,441.187500 
	C735.702271,441.184082 689.301331,441.183197 642.900452,441.181915 
z"/>
<path fill="#FCE7E3" opacity="1.000000" stroke="none" 
	d="
M382.043549,314.032013 
	C371.994385,313.970856 361.945251,313.909698 351.435547,313.750366 
	C350.740509,313.221649 350.556915,312.453247 350.264252,312.409180 
	C336.096436,310.276184 325.899445,301.108093 315.180634,292.798859 
	C303.196777,283.508911 295.199677,271.658539 291.837494,256.857819 
	C289.549561,246.786133 291.379852,237.150146 295.566925,227.825668 
	C303.937500,209.184586 318.114624,195.626953 334.273163,183.937805 
	C347.639618,174.268448 361.837555,166.139343 378.296417,162.736069 
	C385.357605,161.275986 392.079529,161.794052 398.705719,165.368774 
	C400.157379,173.001236 396.688507,178.185196 390.942657,181.993027 
	C385.859985,185.361359 380.474640,188.273026 374.723877,191.743591 
	C367.630981,196.239059 360.856262,200.118881 354.486633,204.577469 
	C345.461243,210.895081 337.147827,218.096222 331.479340,227.751938 
	C327.462555,234.594070 324.552002,241.795425 327.119598,250.355011 
	C331.939667,264.701752 343.157806,272.403046 355.433899,278.729126 
	C376.096588,289.376953 398.774506,293.182922 421.268799,297.465668 
	C421.209717,297.642059 421.322510,297.996613 421.108215,298.172638 
	C420.595947,298.567474 420.297974,298.786316 420.000000,299.005188 
	C407.784882,303.821289 395.569733,308.637421 382.859009,313.648682 
	C382.363464,313.843842 382.043549,314.032013 382.043549,314.032013 
z"/>
<path fill="#EA4936" opacity="1.000000" stroke="none" 
	d="
M642.864197,441.161041 
	C689.301331,441.183197 735.702271,441.184082 782.103149,441.187500 
	C783.765991,441.187622 785.428833,441.213287 787.549072,441.307709 
	C788.053650,445.953583 788.100891,450.518829 788.067993,455.544067 
	C781.329712,458.508728 774.569580,460.773926 768.031677,463.560547 
	C742.957336,474.247803 717.960815,485.117584 692.922241,495.889069 
	C677.656677,502.456299 662.367920,508.969696 647.087341,515.502075 
	C646.046814,515.946960 644.987610,516.348328 642.938293,517.170776 
	C642.938293,492.000671 642.938293,467.466370 642.898926,442.253418 
	C642.859558,441.574799 642.747375,441.162598 642.747375,441.162598 
	C642.747375,441.162598 642.827942,441.140167 642.864197,441.161041 
z"/>
<path fill="#402C3A" opacity="1.000000" stroke="none" 
	d="
M238.026306,552.978027 
	C278.352936,552.747742 318.487518,552.803467 358.622101,552.855042 
	C365.903595,552.864380 373.185089,552.856384 381.015869,552.856384 
	C381.015869,636.896362 381.015869,720.453552 381.040253,804.472412 
	C380.889374,804.996094 380.714142,805.058105 380.271240,805.041992 
	C379.997162,723.364258 379.937836,641.764648 380.109192,560.165466 
	C380.120056,554.999695 378.707703,553.847961 373.716064,553.869446 
	C328.753937,554.063171 283.790588,553.975952 238.350464,553.959656 
	C237.860306,553.719666 237.847275,553.491150 238.026306,552.978027 
z"/>
<path fill="#FDFDFD" opacity="1.000000" stroke="none" 
	d="
M451.146698,442.060822 
	C451.074799,444.052277 450.940643,446.043732 450.939972,448.035217 
	C450.912292,528.390137 450.896637,608.744995 450.869080,689.577209 
	C438.744873,683.104736 426.612915,676.186401 414.523407,669.194702 
	C405.730988,664.109802 397.109161,658.715698 388.176025,653.895447 
	C384.686279,652.012390 383.721375,649.795593 383.729492,646.036438 
	C383.862976,584.220642 383.862610,522.404541 383.891327,460.588470 
	C383.893402,456.089691 384.186035,451.565247 383.802429,447.099243 
	C383.409790,442.528290 384.868835,441.021332 389.580353,441.092590 
	C405.738434,441.336945 421.903076,441.147552 438.975464,441.124695 
	C442.590454,441.076782 445.295166,441.027649 448.294647,441.032990 
	C448.786713,441.056061 448.984039,441.024628 449.444122,441.048767 
	C450.063110,441.137512 450.419312,441.170654 450.810181,441.443237 
	C450.844849,441.682678 451.146698,442.060822 451.146698,442.060822 
z"/>
<path fill="#FE8570" opacity="1.000000" stroke="none" 
	d="
M447.999908,440.978516 
	C445.295166,441.027649 442.590454,441.076782 439.439331,441.053711 
	C434.238495,440.635223 430.070831,437.425201 424.650391,439.682098 
	C418.795563,442.119812 412.064667,436.384308 412.000000,429.908295 
	C411.927002,422.602356 410.238556,421.169739 402.898529,422.186157 
	C397.920929,422.875427 395.539673,420.910126 396.109619,415.961853 
	C396.581970,411.860779 397.176880,408.402100 391.457306,407.603241 
	C390.410187,407.457001 389.293854,404.140656 389.115906,402.204315 
	C388.751587,398.239899 389.000763,394.218903 389.000366,390.221222 
	C388.999329,380.285309 389.001190,370.349396 388.999634,360.413483 
	C388.998352,352.233032 389.969421,343.891724 388.656250,335.927277 
	C387.743225,330.389801 388.989929,323.932861 384.417572,319.130646 
	C383.823669,318.506897 384.189026,316.969788 384.082306,315.464447 
	C385.664856,315.596497 387.032288,316.093567 388.125763,315.740967 
	C396.559692,313.021393 405.104065,310.524963 413.247681,307.090363 
	C416.033783,305.915253 417.773804,302.259949 419.995911,299.371490 
	C420.297974,298.786316 420.595947,298.567474 421.276611,298.163147 
	C421.659332,297.977631 421.998260,297.933380 422.362244,298.057861 
	C424.479187,298.432404 426.232147,298.682434 428.128906,299.177979 
	C428.607666,299.584351 428.942596,299.745209 429.668335,299.894958 
	C431.358826,299.879944 432.658508,299.875977 434.167847,300.162415 
	C435.297516,300.617645 436.217560,300.782440 437.451447,300.958618 
	C438.177032,301.036774 438.588837,301.103607 439.000610,301.170471 
	C447.718781,302.770111 456.405548,304.574127 465.162994,305.917908 
	C476.227936,307.615723 487.350433,308.938599 498.724060,311.044556 
	C498.999603,312.109772 498.999176,312.553680 498.998779,312.997559 
	C495.814484,314.135956 492.630219,315.274323 489.048889,316.774414 
	C488.651855,317.136139 488.273041,317.098846 487.787018,317.068817 
	C485.680420,317.065094 484.059845,317.091370 482.310425,317.384521 
	C481.159088,318.115143 480.136536,318.578857 478.778320,319.031067 
	C477.640472,319.290527 476.838348,319.561554 475.809814,319.908142 
	C475.583374,319.983734 475.109406,320.040833 474.674866,320.028320 
	C469.595215,319.781494 464.947845,319.584808 460.305542,319.304108 
	C452.933472,318.858398 451.151062,320.331818 452.076965,326.145813 
	C452.034149,326.109070 452.146576,326.118134 451.780609,326.084229 
	C450.631042,326.453125 449.847443,326.855927 449.045563,327.462189 
	C449.027252,327.665649 448.791016,327.998932 448.467773,328.006042 
	C447.574799,328.360168 447.005066,328.707153 446.435333,329.054169 
	C447.191772,329.370544 447.948181,329.686951 448.790588,330.440643 
	C448.827362,333.252106 448.778168,335.626221 448.364197,338.069611 
	C447.491364,338.536377 446.579956,338.893860 446.535950,339.337372 
	C445.912018,345.628143 445.241364,351.922211 444.921631,358.232727 
	C444.654114,363.513519 444.749023,368.817993 444.828949,374.109772 
	C444.942535,381.630981 445.014069,389.162170 445.526245,396.660187 
	C445.629608,398.172729 447.618378,399.556458 448.818787,401.411133 
	C448.848267,403.215240 448.796844,404.607849 448.399780,406.058044 
	C444.748749,408.325653 444.504089,411.176636 445.812347,414.730103 
	C446.856384,417.565826 447.737427,420.600128 447.905273,423.590332 
	C448.229675,429.369965 447.999939,435.180695 447.999908,440.978516 
M394.000671,326.633484 
	C394.320312,328.975159 394.639923,331.316803 394.959564,333.658478 
	C395.632996,333.863953 396.306427,334.069397 396.979889,334.274872 
	C398.267334,332.129944 400.364655,330.064117 400.584259,327.814941 
	C400.757690,326.038300 398.622650,324.036255 397.512848,322.134308 
	C396.343597,323.350037 395.174347,324.565765 394.000671,326.633484 
z"/>
<path fill="#626E7F" opacity="1.000000" stroke="none" 
	d="
M252.367966,441.445129 
	C252.675140,441.160583 253.331100,440.991608 253.987015,440.991730 
	C296.019806,440.999847 338.052612,441.021698 380.533569,441.157532 
	C379.851532,441.447144 378.721436,441.773285 377.591034,441.774078 
	C336.628143,441.802979 295.665222,441.802399 254.702316,441.797546 
	C254.040451,441.797455 253.378586,441.694550 252.367966,441.445129 
z"/>
<path fill="#626E7F" opacity="1.000000" stroke="none" 
	d="
M382.014099,314.497253 
	C382.043549,314.032013 382.363464,313.843842 382.546021,313.829224 
	C382.721039,339.656799 382.713562,365.498932 382.521332,391.701843 
	C382.222717,380.960052 382.053680,369.857758 382.008728,358.754944 
	C381.949585,344.157684 381.988098,329.559967 382.014099,314.497253 
z"/>
<path fill="#626E7F" opacity="1.000000" stroke="none" 
	d="
M382.698303,439.778137 
	C382.443268,438.940613 382.315308,437.779541 382.350586,436.305725 
	C382.617706,437.146881 382.721588,438.300751 382.698303,439.778137 
z"/>
<path fill="#626E7F" opacity="1.000000" stroke="none" 
	d="
M451.605591,442.074463 
	C451.146698,442.060822 450.844849,441.682678 451.284058,441.338318 
	C471.313629,440.993988 490.903961,440.993988 511.011505,440.993988 
	C511.011505,432.436981 511.011963,424.645721 511.011353,416.854462 
	C511.010712,409.025818 511.007568,401.197174 511.008148,393.368530 
	C511.008789,385.373322 510.965393,377.377747 511.028717,369.383026 
	C511.088165,361.876007 511.261902,354.369934 511.385345,346.863434 
	C512.025635,346.892426 512.665894,346.921448 513.306152,346.950439 
	C513.306152,378.155029 513.306152,409.359619 513.306152,440.881744 
	C534.116699,440.881744 554.420532,440.881744 574.724365,440.881744 
	C574.724365,440.881744 574.987671,440.884521 575.042603,441.200562 
	C575.154480,441.695709 575.211487,441.874817 575.268494,442.053955 
	C575.268494,442.053955 575.016541,442.085876 574.892456,442.060669 
	C554.336304,442.035461 533.904297,442.035461 512.642456,442.035461 
	C512.642456,472.216675 512.642456,501.789886 512.642456,531.363037 
	C512.186462,531.359558 511.730469,531.356079 511.274475,531.352539 
	C511.274475,501.862762 511.274475,472.372986 511.274475,442.088074 
	C491.190552,442.088074 471.627502,442.088074 451.605591,442.074463 
z"/>
<path fill="#202F45" opacity="1.000000" stroke="none" 
	d="
M574.834595,440.435852 
	C554.420532,440.881744 534.116699,440.881744 513.306152,440.881744 
	C513.306152,409.359619 513.306152,378.155029 513.306152,346.950439 
	C512.665894,346.921448 512.025635,346.892426 511.385345,346.863434 
	C511.261902,354.369934 511.088165,361.876007 511.028717,369.383026 
	C510.965393,377.377747 511.008789,385.373322 511.008148,393.368530 
	C511.007568,401.197174 511.010712,409.025818 511.011353,416.854462 
	C511.011963,424.645721 511.011505,432.436981 511.011505,440.993988 
	C490.903961,440.993988 471.313629,440.993988 451.249420,441.098877 
	C450.419312,441.170654 450.063110,441.137512 449.415710,440.579041 
	C448.998169,428.702606 448.871765,417.351501 448.745392,406.000427 
	C448.796844,404.607849 448.848267,403.215240 448.898621,400.948517 
	C448.841370,379.383026 448.785187,358.691711 448.729004,338.000366 
	C448.778168,335.626221 448.827362,333.252106 448.866699,330.111511 
	C448.834869,328.896362 448.812927,328.447662 448.791016,327.998932 
	C448.791016,327.998932 449.027252,327.665649 449.385864,327.397644 
	C450.545197,326.792480 451.345886,326.455292 452.146576,326.118134 
	C452.146576,326.118134 452.034149,326.109070 452.482391,326.143311 
	C460.323547,324.131989 467.716492,322.086395 475.109406,320.040833 
	C475.109406,320.040833 475.583374,319.983734 476.155640,319.995789 
	C477.523254,319.686096 478.318634,319.364349 479.114014,319.042603 
	C480.136536,318.578857 481.159088,318.115143 482.534912,317.736694 
	C484.683167,317.580963 486.478088,317.339905 488.273041,317.098846 
	C488.273041,317.098846 488.651855,317.136139 488.825684,317.058655 
	C494.183441,315.949219 499.401672,315.056641 504.528503,313.793091 
	C505.909943,313.452637 507.013794,311.985748 508.727417,311.382507 
	C510.146881,312.276459 511.083984,312.823914 512.019043,313.816772 
	C512.016907,324.312683 512.016907,334.363190 512.016907,345.179077 
	C519.235718,343.152008 525.611267,341.309540 532.015991,339.574982 
	C542.670898,336.689392 553.333069,333.828857 564.019531,331.063110 
	C566.286255,330.476440 568.670105,330.342499 571.053101,330.138031 
	C571.190552,330.326263 571.274963,330.376434 571.359314,330.426605 
	C571.239563,330.284393 571.119751,330.142181 571.157410,329.746429 
	C572.382996,328.996643 573.451172,328.500427 574.519348,328.004211 
	C574.679688,328.974884 574.979919,329.945465 574.980103,330.916138 
	C574.985596,367.274078 574.963379,403.632050 574.834595,440.435852 
z"/>
<path fill="#213044" opacity="1.000000" stroke="none" 
	d="
M697.638550,249.925461 
	C695.455811,258.844818 689.459412,265.012512 682.521606,270.346283 
	C666.887390,282.365814 648.669678,288.864777 629.748657,292.830170 
	C602.625732,298.514526 575.263733,303.068329 547.977051,307.955658 
	C537.353333,309.858459 526.656982,311.355865 515.208984,313.003357 
	C514.175415,312.919067 513.926697,312.869385 513.862732,312.554230 
	C515.051270,311.536713 516.055115,310.784668 517.058960,310.032654 
	C517.058960,310.032654 517.001709,310.003326 517.366211,310.004517 
	C519.849670,308.688995 521.968628,307.372314 524.413940,305.922241 
	C527.354431,304.225220 529.982727,302.684937 532.580261,301.094421 
	C560.143066,284.217224 587.773010,267.447815 615.225159,250.392456 
	C626.312683,243.504028 637.008850,235.985687 648.052551,229.096649 
	C648.872131,229.919861 649.456299,230.564011 650.182190,230.856934 
	C665.991455,237.236649 681.816528,243.577301 697.638550,249.925461 
z"/>
<path fill="#203045" opacity="1.000000" stroke="none" 
	d="
M427.985138,298.932465 
	C426.232147,298.682434 424.479187,298.432404 422.318695,297.880402 
	C421.805298,297.302582 421.610870,297.206207 421.327850,297.289276 
	C398.774506,293.182922 376.096588,289.376953 355.433899,278.729126 
	C343.157806,272.403046 331.939667,264.701752 327.451294,250.294327 
	C329.940796,248.391022 331.901001,246.527405 334.230133,245.500946 
	C341.470428,242.310181 348.762299,239.191650 356.202148,236.511414 
	C363.271667,233.964645 370.552765,232.005112 378.022095,229.920807 
	C381.173676,232.308990 383.854614,234.872238 386.944580,236.769302 
	C410.175232,251.031479 433.500885,265.138885 456.767609,279.342499 
	C472.898712,289.190002 488.983459,299.113464 505.088928,309.002960 
	C497.549438,308.192078 489.988708,307.539795 482.475128,306.535004 
	C469.501373,304.800140 456.558929,302.831726 443.596924,301.007233 
	C442.312531,300.826447 440.983337,300.963989 439.337769,301.062103 
	C438.588837,301.103607 438.177032,301.036774 437.271240,300.639252 
	C435.837524,300.163055 434.897888,300.017548 433.958221,299.872040 
	C432.658508,299.875977 431.358826,299.879944 429.542816,299.619720 
	C428.679382,299.214508 428.332275,299.073486 427.985138,298.932465 
z"/>
<path fill="#FBFBFB" opacity="1.000000" stroke="none" 
	d="
M647.883118,228.754028 
	C637.008850,235.985687 626.312683,243.504028 615.225159,250.392456 
	C587.773010,267.447815 560.143066,284.217224 532.580261,301.094421 
	C529.982727,302.684937 527.354431,304.225220 524.151978,305.763794 
	C523.319519,305.413788 523.075500,305.088837 522.831482,304.763916 
	C533.837158,295.164734 544.873169,285.600006 555.842529,275.959534 
	C582.318970,252.690521 608.761780,229.383301 635.231750,206.106934 
	C636.212341,205.244675 637.335144,204.544037 639.115479,203.728790 
	C646.566345,205.300537 652.343811,208.646225 652.356384,216.121460 
	C652.363464,220.329788 649.469971,224.542999 647.883118,228.754028 
z"/>
<path fill="#FBFBFB" opacity="1.000000" stroke="none" 
	d="
M505.047363,309.002869 
	C488.983459,299.113464 472.898712,289.190002 456.767609,279.342499 
	C433.500885,265.138885 410.175232,251.031479 386.944580,236.769302 
	C383.854614,234.872238 381.173676,232.308990 377.843903,229.599304 
	C368.240173,216.858795 370.979736,207.737549 385.003052,203.778534 
	C389.174011,206.949707 393.552460,209.884186 397.483063,213.329575 
	C428.518402,240.533691 459.440491,267.867004 490.471588,295.075958 
	C495.716278,299.674652 501.317322,303.866943 506.536072,308.627563 
	C505.880005,308.978607 505.441589,308.949127 505.003174,308.919617 
	C505.003174,308.919617 505.005768,309.002747 505.047363,309.002869 
z"/>
<path fill="#172437" opacity="1.000000" stroke="none" 
	d="
M648.052551,229.096664 
	C649.469971,224.542999 652.363464,220.329788 652.356384,216.121460 
	C652.343811,208.646225 646.566345,205.300537 639.453491,203.583511 
	C642.540649,199.752838 646.013550,196.028122 649.911560,191.847534 
	C667.094177,201.939835 684.069397,212.283646 694.543213,230.271790 
	C697.912048,236.057632 699.072571,242.380844 697.790894,249.487717 
	C681.816528,243.577301 665.991455,237.236649 650.182190,230.856934 
	C649.456299,230.564011 648.872131,229.919861 648.052551,229.096664 
z"/>
<path fill="#172437" opacity="1.000000" stroke="none" 
	d="
M384.988617,203.439972 
	C370.979736,207.737549 368.240173,216.858795 377.562683,229.465866 
	C370.552765,232.005112 363.271667,233.964645 356.202148,236.511414 
	C348.762299,239.191650 341.470428,242.310181 334.230133,245.500946 
	C331.901001,246.527405 329.940796,248.391022 327.480103,249.932327 
	C324.552002,241.795425 327.462555,234.594070 331.479340,227.751938 
	C337.147827,218.096222 345.461243,210.895081 354.486633,204.577469 
	C360.856262,200.118881 367.630981,196.239059 374.570374,192.055115 
	C378.268677,195.706726 381.621429,199.404068 384.988617,203.439972 
z"/>
<path fill="#172437" opacity="1.000000" stroke="none" 
	d="
M513.678040,312.819702 
	C513.926697,312.869385 514.175415,312.919067 514.800354,313.024536 
	C526.717407,315.725220 538.279480,318.282196 549.792114,321.044952 
	C557.981995,323.010376 566.105469,325.252991 574.388916,327.688049 
	C573.451172,328.500427 572.382996,328.996643 571.157410,329.746399 
	C568.670105,330.342499 566.286255,330.476440 564.019531,331.063110 
	C553.333069,333.828857 542.670898,336.689392 532.015991,339.574982 
	C525.611267,341.309540 519.235718,343.152008 512.016907,345.179077 
	C512.016907,334.363190 512.016907,324.312683 512.263306,313.646118 
	C512.899170,312.959930 513.288574,312.889801 513.678040,312.819702 
z"/>
<path fill="#FE8670" opacity="1.000000" stroke="none" 
	d="
M575.717041,442.037018 
	C575.211487,441.874817 575.154480,441.695709 575.166870,441.243958 
	C597.443604,440.995697 619.650940,441.020081 642.302795,441.103546 
	C642.747375,441.162598 642.859558,441.574799 642.844604,441.787964 
	C620.608215,442.007416 598.386902,442.013763 575.717041,442.037018 
z"/>
<path fill="#FCE7E3" opacity="1.000000" stroke="none" 
	d="
M522.504456,304.873779 
	C523.075500,305.088837 523.319519,305.413788 523.825562,305.897217 
	C521.968628,307.372314 519.849670,308.688995 517.381226,310.033020 
	C518.746887,308.368134 520.462158,306.675903 522.504456,304.873779 
z"/>
<path fill="#FCE7E3" opacity="1.000000" stroke="none" 
	d="
M513.862732,312.554230 
	C513.288574,312.889801 512.899170,312.959930 512.265381,313.200714 
	C511.083984,312.823914 510.146881,312.276459 509.102417,311.412476 
	C511.417389,310.666992 513.839661,310.238007 516.660461,309.920837 
	C516.055115,310.784668 515.051270,311.536713 513.862732,312.554230 
z"/>
<path fill="#FE8670" opacity="1.000000" stroke="none" 
	d="
M499.297607,312.959900 
	C498.999176,312.553680 498.999603,312.109772 499.000000,311.332947 
	C499.518097,311.233673 500.036224,311.467346 500.554321,311.700989 
	C500.235016,312.108063 499.915710,312.515167 499.297607,312.959900 
z"/>
<path fill="#203045" opacity="1.000000" stroke="none" 
	d="
M504.971619,309.248535 
	C505.441589,308.949127 505.880005,308.978607 506.642883,308.941650 
	C506.291595,309.109253 505.615814,309.343353 504.971619,309.248535 
z"/>
<path fill="#FE8670" opacity="1.000000" stroke="none" 
	d="
M421.268799,297.465668 
	C421.610870,297.206207 421.805298,297.302582 421.954712,297.755920 
	C421.998260,297.933380 421.659332,297.977631 421.490906,297.987122 
	C421.322510,297.996613 421.209717,297.642059 421.268799,297.465668 
z"/>
<path fill="#FE8670" opacity="1.000000" stroke="none" 
	d="
M448.399780,406.058044 
	C448.871765,417.351501 448.998169,428.702606 449.152954,440.523438 
	C448.984039,441.024628 448.786713,441.056061 448.294647,441.032990 
	C447.999939,435.180695 448.229675,429.369965 447.905273,423.590332 
	C447.737427,420.600128 446.856384,417.565826 445.812347,414.730103 
	C444.504089,411.176636 444.748749,408.325653 448.399780,406.058044 
z"/>
<path fill="#FE8670" opacity="1.000000" stroke="none" 
	d="
M448.364227,338.069611 
	C448.785187,358.691711 448.841370,379.383026 448.817719,400.536987 
	C447.618378,399.556458 445.629608,398.172729 445.526245,396.660187 
	C445.014069,389.162170 444.942535,381.630981 444.828949,374.109772 
	C444.749023,368.817993 444.654114,363.513519 444.921631,358.232727 
	C445.241364,351.922211 445.912018,345.628143 446.535950,339.337372 
	C446.579956,338.893860 447.491364,338.536377 448.364227,338.069611 
z"/>
<path fill="#FE8670" opacity="1.000000" stroke="none" 
	d="
M474.674866,320.028320 
	C467.716492,322.086395 460.323547,324.131989 452.525208,326.180054 
	C451.151062,320.331818 452.933472,318.858398 460.305542,319.304108 
	C464.947845,319.584808 469.595215,319.781494 474.674866,320.028320 
z"/>
<path fill="#FE8670" opacity="1.000000" stroke="none" 
	d="
M394.002899,326.207489 
	C395.174347,324.565765 396.343597,323.350037 397.512848,322.134308 
	C398.622650,324.036255 400.757690,326.038300 400.584259,327.814941 
	C400.364655,330.064117 398.267334,332.129944 396.979889,334.274872 
	C396.306427,334.069397 395.632996,333.863953 394.959564,333.658478 
	C394.639923,331.316803 394.320312,328.975159 394.002899,326.207489 
z"/>
<path fill="#FE8670" opacity="1.000000" stroke="none" 
	d="
M448.467773,328.006042 
	C448.812927,328.447662 448.834869,328.896362 448.780701,329.674194 
	C447.948181,329.686951 447.191772,329.370544 446.435333,329.054169 
	C447.005066,328.707153 447.574799,328.360168 448.467773,328.006042 
z"/>
<path fill="#FE8670" opacity="1.000000" stroke="none" 
	d="
M487.787018,317.068817 
	C486.478088,317.339905 484.683167,317.580963 482.663757,317.469849 
	C484.059845,317.091370 485.680420,317.065094 487.787018,317.068817 
z"/>
<path fill="#FE8670" opacity="1.000000" stroke="none" 
	d="
M434.167847,300.162415 
	C434.897888,300.017548 435.837524,300.163055 436.957397,300.627930 
	C436.217560,300.782440 435.297516,300.617645 434.167847,300.162415 
z"/>
<path fill="#FE8670" opacity="1.000000" stroke="none" 
	d="
M451.780609,326.084229 
	C451.345886,326.455292 450.545197,326.792480 449.404175,327.194214 
	C449.847443,326.855927 450.631042,326.453125 451.780609,326.084229 
z"/>
<path fill="#FE8670" opacity="1.000000" stroke="none" 
	d="
M478.778320,319.031036 
	C478.318634,319.364349 477.523254,319.686096 476.382050,319.920227 
	C476.838348,319.561554 477.640472,319.290527 478.778320,319.031036 
z"/>
<path fill="#FE8670" opacity="1.000000" stroke="none" 
	d="
M428.128906,299.177979 
	C428.332275,299.073486 428.679382,299.214508 429.152039,299.630798 
	C428.942596,299.745209 428.607666,299.584351 428.128906,299.177979 
z"/>
<path fill="#172437" opacity="1.000000" stroke="none" 
	d="
M571.053101,330.138062 
	C571.119751,330.142181 571.239563,330.284393 571.359314,330.426605 
	C571.274963,330.376434 571.190552,330.326263 571.053101,330.138062 
z"/>
</svg>